# xmcd CD database file
#
# Track frame offsets:
#	150
#	10785
#	24775
#	39050
#	76200
#
# Disc length: 4440 seconds
#
# Revision: 0
# Processed by: cddbd v1.5.1PL0 Copyright (c) Steve Scherf et al.
# Submitted via: CDex 1.51
#
DISCID=1f115605
DTITLE=SEX MACHINEGUNS - SM Show 〜 SM Show Finalのエンディングテーマ集
DYEAR=2003
DGENRE=Heavy Metal
TTITLE0=M男
TTITLE1=Door
TTITLE2=YEAH! PARTY!
TTITLE3=The Finale
TTITLE4=CCCD
EXTD=YEAR: 2003
EXTT0=
EXTT1=
EXTT2=
EXTT3=
EXTT4=
PLAYORDER=
